<svg
  xmlns="http://www.w3.org/2000/svg"
  viewBox="0 0 279 266"
  width={279}
  height={266}
  preserveAspectRatio="xMidYMid meet"
  style={{
    width: "100%",
    height: "100%",
    transform: "translate3d(0px, 0px, 0px)"
  }}
>
  <defs>
    <clipPath id="__lottie_element_401">
      <rect width={279} height={266} x={0} y={0} />
    </clipPath>
  </defs>
  <g clipPath="url(#__lottie_element_401)">
    <g
      transform="matrix(1,0,0,1,5.5879974365234375,-0.0019989013671875)"
      opacity="0.1"
      style={{ display: "block" }}
    >
      <g
        opacity={1}
        transform="matrix(1,0,0,1,136.4340057373047,132.68099975585938)"
      >
        <path
          fill="rgb(244,247,249)"
          fillOpacity={1}
          d=" M4.249000072479248,-132.6199951171875 C-65.60399627685547,-134.67599487304688 -126.11000061035156,-83.97899627685547 -135.25599670410156,-17.45199966430664 C-145.2530059814453,55.27899932861328 -90.24199676513672,120.72599792480469 -22.548999786376953,131.20199584960938 C61.64899826049805,144.24200439453125 143.30599975585938,68.81600189208984 135.97500610351562,-13.006999969482422 C130.4499969482422,-74.65899658203125 75.2490005493164,-130.51699829101562 4.249000072479248,-132.6199951171875z"
        />
      </g>
    </g>
    <g
      transform="matrix(0.9977127313613892,0.06759697943925858,-0.06759697943925858,0.9977127313613892,3.7852325439453125,91.27925109863281)"
      opacity={1}
      style={{ display: "block" }}
    >
      <g
        opacity={1}
        transform="matrix(1,0,0,1,59.96799850463867,74.9229965209961)"
      >
        <path
          fill="rgb(226,141,221)"
          fillOpacity={1}
          d=" M37.36399841308594,74.6729965209961 C38.95100021362305,74.30999755859375 42.07600021362305,72.12999725341797 42.659000396728516,71.23200225830078 C46.51900100708008,65.20800018310547 54.4900016784668,54.41299819946289 53.33399963378906,46.93899917602539 C53.13399887084961,45.66699981689453 47.284000396728516,45.018001556396484 46.37699890136719,43.917999267578125 C42.744998931884766,42.599998474121094 41.40700149536133,42.36800003051758 38.56800079345703,39.42399978637695 C30.195999145507812,30.724000930786133 45.55400085449219,11.434000015258789 25.131000518798828,7.11299991607666 C10.173999786376953,3.9489998817443848 -1.6200000047683716,10.12399959564209 -2.203000068664551,-12.581000328063965 C-2.803999900817871,-35.28499984741211 -24.604999542236328,-74.6719970703125 -46.9109992980957,-56.67100143432617 C-59.71799850463867,-46.33700180053711 -44.01499938964844,-28.47800064086914 -49.69200134277344,-13.66100025177002 C-55.09199905395508,0.421999990940094 -48.334999084472656,10.946000099182129 -33.29199981689453,17.64900016784668 C-18.249000549316406,24.350000381469727 -25.283000946044922,31.280000686645508 -28.20800018310547,44.45399856567383 C-31.725000381469727,60.2760009765625 -7.869999885559082,60.742000579833984 3.1679999828338623,60.01599884033203 C12.04699993133545,59.433998107910156 35.060001373291016,63.94499969482422 37.36399841308594,74.6729965209961z"
        />
      </g>
      <g
        opacity="0.5"
        transform="matrix(1,0,0,1,56.70899963378906,72.73300170898438)"
      >
        <path
          fill="rgb(251,252,253)"
          fillOpacity={1}
          d=" M51.106998443603516,61.93899917602539 C51.106998443603516,61.93899917602539 51.23099899291992,61.61399841308594 51.23099899291992,61.61399841308594 C47.5880012512207,60.249000549316406 44.03300094604492,58.736000061035156 40.57099914550781,57.084999084472656 C34.83399963378906,52.305999755859375 31.451000213623047,44.821998596191406 30.520999908447266,34.82600021362305 C29.795000076293945,27.072999954223633 30.530000686645508,18.01099967956543 32.70899963378906,7.895999908447266 C32.70899963378906,7.895999908447266 32.375,7.820000171661377 32.375,7.820000171661377 C30.195999145507812,17.97100067138672 29.450000762939453,27.062999725341797 30.177000045776367,34.854000091552734 C31.05500030517578,44.3849983215332 34.15700149536133,51.6609992980957 39.393001556396484,56.513999938964844 C34.07899856567383,53.9119987487793 28.985000610351562,50.972999572753906 24.128999710083008,47.720001220703125 C24.128999710083008,47.720001220703125 24.165000915527344,47.54199981689453 24.165000915527344,47.54199981689453 C24.02400016784668,47.51300048828125 23.881000518798828,47.48500061035156 23.738000869750977,47.45899963378906 C9.178999900817871,37.630001068115234 -3.2360000610351562,24.968000411987305 -13.081000328063965,10.062000274658203 C-13.081000328063965,10.062000274658203 -12.9350004196167,9.883999824523926 -12.9350004196167,9.883999824523926 C-13.121000289916992,9.732000350952148 -13.307000160217285,9.581000328063965 -13.494000434875488,9.432999610900879 C-19.464000701904297,0.28700000047683716 -24.474000930786133,-9.692999839782715 -28.424999237060547,-20.374000549316406 C-28.424999237060547,-20.374000549316406 -28.3799991607666,-20.381000518798828 -28.3799991607666,-20.381000518798828 C-31.190000534057617,-36.98699951171875 -22.97100067138672,-52.645999908447266 -17.82900047302246,-60.50400161743164 C-17.82900047302246,-60.50400161743164 -18.115999221801758,-60.69599914550781 -18.115999221801758,-60.69599914550781 C-23.14299964904785,-53.03300094604492 -31.06800079345703,-37.97700119018555 -28.945999145507812,-21.804000854492188 C-33.43600082397461,-34.31100082397461 -36.487998962402344,-47.7599983215332 -37.94599914550781,-61.93899917602539 C-37.94599914550781,-61.93899917602539 -38.290000915527344,-61.9010009765625 -38.290000915527344,-61.9010009765625 C-36.810001373291016,-47.534000396728516 -33.59299850463867,-33.65299987792969 -28.777000427246094,-20.64699935913086 C-28.760000228881836,-20.540000915527344 -28.743000030517578,-20.43199920654297 -28.724000930786133,-20.325000762939453 C-28.724000930786133,-20.325000762939453 -28.66200065612793,-20.333999633789062 -28.66200065612793,-20.333999633789062 C-24.777000427246094,-9.911999702453613 -19.86400032043457,-0.050999999046325684 -13.994000434875488,9.043000221252441 C-25.4060001373291,0.2840000092983246 -40.46200180053711,-0.9679999947547913 -51.23099899291992,-0.4390000104904175 C-51.23099899291992,-0.4390000104904175 -51.21200180053711,-0.09600000083446503 -51.21200180053711,-0.09600000083446503 C-40.24300003051758,-0.6359999775886536 -24.819000244140625,0.6779999732971191 -13.402999877929688,9.949999809265137 C-12.668999671936035,11.069000244140625 -11.920999526977539,12.175000190734863 -11.157999992370605,13.269000053405762 C-1.7289999723434448,26.791000366210938 9.836999893188477,38.277000427246094 23.0310001373291,47.327999114990234 C8.017999649047852,44.667999267578125 -14.26200008392334,47.02799987792969 -27.309999465942383,52.733001708984375 C-27.309999465942383,52.733001708984375 -27.166000366210938,53.047000885009766 -27.166000366210938,53.047000885009766 C-13.95300006866455,47.263999938964844 8.78499984741211,44.941001892089844 23.729999542236328,47.803001403808594 C29.020000457763672,51.38199996948242 34.56700134277344,54.571998596191406 40.3390007019043,57.34400177001953 C40.676998138427734,57.62699890136719 41.02399826049805,57.89899826049805 41.37799835205078,58.16299819946289 C41.37799835205078,58.16299819946289 41.55799865722656,57.92300033569336 41.55799865722656,57.92300033569336 C44.678001403808594,59.382999420166016 47.862998962402344,60.722999572753906 51.106998443603516,61.93899917602539z"
        />
      </g>
    </g>
    <g
      transform="matrix(0.9977127313613892,-0.06759697943925858,0.06759697943925858,0.9977127313613892,7.906486511230469,73.71305847167969)"
      opacity={1}
      style={{ display: "block" }}
    >
      <g
        opacity={1}
        transform="matrix(1,0,0,1,46.744998931884766,89.88400268554688)"
      >
        <path
          fill="rgb(92,186,228)"
          fillOpacity={1}
          d=" M21.96299934387207,85.61799621582031 C29.63800048828125,83.71600341796875 37.292999267578125,81.63200378417969 44.909000396728516,79.3759994506836 C45.042999267578125,79.4800033569336 45.95000076293945,62.303001403808594 37.053001403808594,54.20399856567383 C19.476999282836914,38.54499816894531 28.69099998474121,22.065000534057617 30.850000381469727,12.618000030517578 C34.433998107910156,-0.7450000047683716 30.53499984741211,-14.454999923706055 17.402999877929688,-13.385000228881836 C2.809999942779541,-12.486000061035156 -2.1700000762939453,-36.310001373291016 -1.6629999876022339,-58.479000091552734 C-0.6600000262260437,-69.35800170898438 -12.003000259399414,-81.34600067138672 -22.3439998626709,-83.33499908447266 C-32.93299865722656,-85.61900329589844 -42.52000045776367,-77.90399932861328 -43.59000015258789,-56.29899978637695 C-45.95100021362305,-31.176000595092773 -26.51099967956543,-18.059999465942383 -18.645000457763672,-6.339000225067139 C-10.913000106811523,5.160999774932861 -25.20199966430664,16.461999893188477 -11.888999938964844,26.020999908447266 C-0.6399999856948853,34.56700134277344 13.045000076293945,40.180999755859375 9.45199966430664,52.645999908447266 C5.704999923706055,64.98699951171875 7.817999839782715,74.57599639892578 21.96299934387207,85.61799621582031z"
        />
      </g>
      <g
        opacity={1}
        transform="matrix(1,0,0,1,43.08100128173828,87.87100219726562)"
      >
        <path
          fill="rgb(189,184,241)"
          fillOpacity={1}
          d=" M36.53300094604492,87.572998046875 C36.529998779296875,87.53700256347656 35.875,85.41899871826172 34.650001525878906,81.75199890136719 C34.08399963378906,77.2760009765625 35.000999450683594,69.5510025024414 42.40999984741211,57.90999984741211 C42.83100128173828,57.2400016784668 42.83000183105469,57.2400016784668 42.80099868774414,57.125999450683594 C42.80099868774414,57.125999450683594 42.571998596191406,57.18299865722656 42.571998596191406,57.18299865722656 C42.571998596191406,57.18299865722656 42.35300064086914,57.106998443603516 42.35300064086914,57.106998443603516 C42.33399963378906,57.15399932861328 42.17900085449219,57.391998291015625 42.007999420166016,57.6609992980957 C35.46799850463867,67.93199920654297 33.94300079345703,75.22100067138672 34.040000915527344,79.93399810791016 C33.41400146484375,78.08499908447266 32.676998138427734,75.94200134277344 31.834999084472656,73.55400085449219 C31.834999084472656,73.55400085449219 31.847999572753906,73.55000305175781 31.847999572753906,73.55000305175781 C31.812999725341797,73.45999908447266 31.775999069213867,73.37000274658203 31.738000869750977,73.28099822998047 C28.742000579833984,64.79100036621094 24.45400047302246,53.263999938964844 19.19499969482422,40.78099822998047 C14.569000244140625,19.0939998626709 27.452999114990234,-2.7769999504089355 33.224998474121094,-11.1899995803833 C33.54100036621094,-11.638999938964844 33.63600158691406,-11.791999816894531 33.67399978637695,-11.868000030517578 C33.67399978637695,-11.868000030517578 33.24300003051758,-12.0600004196167 33.24300003051758,-12.0600004196167 C33.22100067138672,-12.015000343322754 33.112998962402344,-11.855999946594238 32.97100067138672,-11.64799976348877 C32.97100067138672,-11.64799976348877 32.84199905395508,-11.456999778747559 32.84199905395508,-11.456999778747559 C28.666000366210938,-5.367000102996826 25.273000717163086,0.9419999718666077 22.740999221801758,7.28000020980835 C18.2450008392334,18.554000854492188 16.770000457763672,29.125999450683594 18.336999893188477,38.755001068115234 C15.595999717712402,32.323001861572266 12.605999946594238,25.672000885009766 9.409000396728516,19.07699966430664 C7.0960001945495605,13.63700008392334 4.619999885559082,8.15999984741211 2.2209999561309814,2.872999906539917 C2.2209999561309814,2.872999906539917 2.2170000076293945,2.859999895095825 2.2170000076293945,2.859999895095825 C-3.921999931335449,-10.71500015258789 -9.906000137329102,-23.944000244140625 -13.845999717712402,-37.49399948120117 C-13.845999717712402,-37.49399948120117 -13.74899959564209,-37.48899841308594 -13.74899959564209,-37.48899841308594 C-13.031999588012695,-48.66400146484375 -9.218000411987305,-56.35100173950195 -6.140999794006348,-60.83399963378906 C-2.7960000038146973,-65.70899963378906 0.5770000219345093,-68.13800048828125 1.0080000162124634,-68.25199890136719 C1.0080000162124634,-68.25199890136719 0.9610000252723694,-68.42400360107422 0.9610000252723694,-68.42400360107422 C0.9610000252723694,-68.42400360107422 1.1039999723434448,-68.68299865722656 1.1039999723434448,-68.68299865722656 C0.9800000190734863,-68.7490005493164 0.8460000157356262,-68.70099639892578 0.6549999713897705,-68.59700012207031 C-2.115000009536743,-67.05599975585938 -12.583999633789062,-57.50199890136719 -14.142999649047852,-38.529998779296875 C-18.538999557495117,-54.07699966430664 -20.19099998474121,-70.0719985961914 -16.261999130249023,-87.51499938964844 C-16.261999130249023,-87.51499938964844 -16.72100067138672,-87.62100219726562 -16.72100067138672,-87.62100219726562 C-21.76799964904785,-65.19000244140625 -17.652000427246094,-45.17499923706055 -10.329000473022461,-25.437999725341797 C-19.761999130249023,-34.15999984741211 -31.090999603271484,-46.32899856567383 -37.310001373291016,-53.00899887084961 C-37.310001373291016,-53.00899887084961 -37.4109992980957,-53.11899948120117 -37.4109992980957,-53.11899948120117 C-42.542999267578125,-58.6349983215332 -42.5629997253418,-58.6349983215332 -42.80099868774414,-58.56800079345703 C-42.80099868774414,-58.56800079345703 -42.744998931884766,-58.3380012512207 -42.744998931884766,-58.3380012512207 C-42.744998931884766,-58.3380012512207 -42.83100128173828,-58.12799835205078 -42.83100128173828,-58.12799835205078 C-42.571998596191406,-57.97100067138672 -40.566001892089844,-55.814998626708984 -37.99300003051758,-53.04800033569336 C-37.99300003051758,-53.04800033569336 -37.75600051879883,-52.79399871826172 -37.75600051879883,-52.79399871826172 C-37.75600051879883,-52.79399871826172 -37.66299819946289,-52.694000244140625 -37.66299819946289,-52.694000244140625 C-31.29599952697754,-45.85499954223633 -19.552000045776367,-33.242000579833984 -9.967000007629395,-24.47100067138672 C-6.51800012588501,-15.312000274658203 -2.4000000953674316,-6.203999996185303 1.7920000553131104,3.063999891281128 C1.7920000553131104,3.063999891281128 2.197999954223633,3.9630000591278076 2.197999954223633,3.9630000591278076 C2.197999954223633,3.9630000591278076 2.197999954223633,3.9639999866485596 2.197999954223633,3.9639999866485596 C4.460999965667725,8.977999687194824 6.788000106811523,14.13599967956543 8.979000091552734,19.26799964904785 C10.5649995803833,22.540000915527344 12.097999572753906,25.81999969482422 13.574000358581543,29.077999114990234 C3.1029999256134033,16.829999923706055 -14.265000343322754,16.98200035095215 -16.08099937438965,17.07699966430664 C-16.167999267578125,17.082000732421875 -16.219999313354492,17.086000442504883 -16.233999252319336,17.089000701904297 C-16.233999252319336,17.089000701904297 -16.385000228881836,17.327999114990234 -16.385000228881836,17.327999114990234 C-16.385000228881836,17.327999114990234 -16.20400047302246,17.538000106811523 -16.20400047302246,17.538000106811523 C-16.20400047302246,17.538000106811523 -16.145999908447266,17.30900001525879 -16.145999908447266,17.30900001525879 C-16.145999908447266,17.30900001525879 -16.108999252319336,17.538000106811523 -16.108999252319336,17.538000106811523 C-15.918000221252441,17.510000228881836 3.559999942779541,16.621000289916992 14.236000061035156,30.645000457763672 C14.236000061035156,30.645000457763672 14.269000053405762,30.618000030517578 14.269000053405762,30.618000030517578 C15.82800006866455,34.09299850463867 17.320999145507812,37.53300094604492 18.740999221801758,40.89899826049805 C18.740999221801758,40.89899826049805 18.783000946044922,41.10300064086914 18.783000946044922,41.10300064086914 C18.783000946044922,41.10300064086914 18.822999954223633,41.09400177001953 18.822999954223633,41.09400177001953 C23.56599998474121,52.354000091552734 27.5,62.78900146484375 30.4060001373291,70.91200256347656 C26.054000854492188,64.71499633789062 16.288000106811523,60.808998107910156 10.394000053405762,58.922000885009766 C10.182999610900879,58.85499954223633 10.050000190734863,58.80699920654297 9.991999626159668,58.78900146484375 C9.991999626159668,58.78900146484375 9.819999694824219,59.22800064086914 9.819999694824219,59.22800064086914 C9.819999694824219,59.22800064086914 10.24899959564209,59.37099838256836 10.24899959564209,59.37099838256836 C16.815000534057617,61.4630012512207 28.263999938964844,66.10399627685547 31.354999542236328,73.58899688720703 C32.48699951171875,76.80000305175781 33.42900085449219,79.56600189208984 34.16699981689453,81.77300262451172 C34.17100143432617,81.80599975585938 34.176998138427734,81.83999633789062 34.18000030517578,81.87300109863281 C34.18299865722656,81.89900207519531 34.1870002746582,81.927001953125 34.191001892089844,81.9530029296875 C34.191001892089844,81.9530029296875 34.224998474121094,81.947998046875 34.224998474121094,81.947998046875 C35.415000915527344,85.51300048828125 36.053001403808594,87.56999969482422 36.06399917602539,87.62100219726562 C36.06399917602539,87.62100219726562 36.53300094604492,87.572998046875 36.53300094604492,87.572998046875z"
        />
      </g>
    </g>
    <g
      transform="matrix(1,0,0,1,74.28700256347656,25.00799560546875)"
      opacity={1}
      style={{ display: "block" }}
    >
      <g
        opacity={1}
        transform="matrix(1,0,0,1,59.11800003051758,114.91000366210938)"
      >
        <path
          fill="rgb(68,74,139)"
          fillOpacity={1}
          d=" M58.86800003051758,-105.33999633789062 C58.86800003051758,-105.33999633789062 58.86800003051758,101.43099975585938 58.86800003051758,101.43099975585938 C58.86800003051758,104.51899719238281 56.22200012207031,105.2750015258789 53.229000091552734,105.47599792480469 C53.229000091552734,105.47599792480469 -51.250999450683594,114.33699798583984 -51.250999450683594,114.33699798583984 C-51.250999450683594,114.33699798583984 -52.85499954223633,114.44300079345703 -52.85499954223633,114.44300079345703 C-56.1619987487793,114.66100311279297 -58.86800003051758,112.1760025024414 -58.86800003051758,108.91699981689453 C-58.86800003051758,108.91699981689453 -58.86800003051758,-108.8290023803711 -58.86800003051758,-108.8290023803711 C-58.86800003051758,-112.08899688720703 -56.1619987487793,-114.66100311279297 -52.85499954223633,-114.55500030517578 C-52.85499954223633,-114.55500030517578 -50.67599868774414,-114.48799896240234 -50.67599868774414,-114.48799896240234 C-50.67599868774414,-114.48799896240234 54.16699981689453,-106.46700286865234 54.16699981689453,-106.46700286865234 C57.15700149536133,-106.37100219726562 58.86800003051758,-108.4280014038086 58.86800003051758,-105.33999633789062z"
        />
      </g>
      <g
        opacity={1}
        transform="matrix(1,0,0,1,62.375999450683594,114.85399627685547)"
      >
        <path
          fill="rgb(68,74,139)"
          fillOpacity={1}
          d=" M58.810001373291016,-105.28299713134766 C58.810001373291016,-105.28299713134766 58.810001373291016,101.38300323486328 58.810001373291016,101.38300323486328 C58.810001373291016,104.47000122070312 56.36399841308594,107.16699981689453 53.37200164794922,107.35900115966797 C53.37200164794922,107.35900115966797 -52.80799865722656,114.38500213623047 -52.80799865722656,114.38500213623047 C-56.10499954223633,114.60399627685547 -58.810001373291016,112.11799621582031 -58.810001373291016,108.86900329589844 C-58.810001373291016,108.86900329589844 -58.810001373291016,-108.77100372314453 -58.810001373291016,-108.77100372314453 C-58.810001373291016,-112.02100372314453 -56.10499954223633,-114.60299682617188 -52.80799865722656,-114.49700164794922 C-52.80799865722656,-114.49700164794922 53.37200164794922,-111.08499908447266 53.37200164794922,-111.08499908447266 C56.36399841308594,-110.97899627685547 58.810001373291016,-108.37100219726562 58.810001373291016,-105.28299713134766z"
        />
      </g>
      <g
        opacity={1}
        transform="matrix(1,0,0,1,62.571998596191406,118.75900268554688)"
      >
        <path
          fill="rgb(170,83,252)"
          fillOpacity={1}
          d=" M55.27899932861328,-97.81099700927734 C55.27899932861328,-97.81099700927734 55.27899932861328,93.73899841308594 55.27899932861328,93.73899841308594 C55.27899932861328,96.62699890136719 52.965999603271484,99.13099670410156 50.16600036621094,99.31400299072266 C50.16600036621094,99.31400299072266 -49.6879997253418,105.71800231933594 -49.6879997253418,105.71800231933594 C-52.755001068115234,105.90899658203125 -55.27899932861328,103.59600067138672 -55.27899932861328,100.56500244140625 C-55.27899932861328,100.56500244140625 -55.27899932861328,-100.5260009765625 -55.27899932861328,-100.5260009765625 C-55.27899932861328,-102.53399658203125 -54.17900085449219,-104.27400207519531 -52.53499984741211,-105.19100189208984 C-51.70399856567383,-105.66000366210938 -50.729000091552734,-105.90899658203125 -49.698001861572266,-105.88999938964844 C-49.698001861572266,-105.88999938964844 50.16600036621094,-103.21299743652344 50.16600036621094,-103.21299743652344 C52.965999603271484,-103.1259994506836 55.27899932861328,-100.70800018310547 55.27899932861328,-97.81099700927734z"
        />
      </g>
      <g
        opacity={1}
        transform="matrix(1,0,0,1,63.88600158691406,8.505000114440918)"
      >
        <path
          fill="rgb(222,138,223)"
          fillOpacity={1}
          d=" M1.9739999771118164,0.06199999898672104 C1.9739999771118164,1.1619999408721924 1.093999981880188,2.0220000743865967 0.004999999888241291,1.99399995803833 C-1.0850000381469727,1.965000033378601 -1.9739999771118164,1.0470000505447388 -1.9739999771118164,-0.05299999937415123 C-1.9739999771118164,-1.1519999504089355 -1.0850000381469727,-2.0220000743865967 0.004999999888241291,-1.9839999675750732 C1.093999981880188,-1.9550000429153442 1.9739999771118164,-1.0369999408721924 1.9739999771118164,0.06199999898672104z"
        />
      </g>
    </g>
    <g
      transform="matrix(1,0,0,1,152.15399169921875,51.131866455078125)"
      opacity={1}
      style={{ display: "block" }}
    >
      <g
        opacity={1}
        transform="matrix(1,0,0,1,16.39699935913086,6.172999858856201)"
      >
        <path
          fill="rgb(215,222,232)"
          fillOpacity={1}
          d=" M16.14699935913086,5.922999858856201 C16.14699935913086,5.922999858856201 -16.14699935913086,5.664999961853027 -16.14699935913086,5.664999961853027 C-16.14699935913086,5.664999961853027 -16.14699935913086,-5.922999858856201 -16.14699935913086,-5.922999858856201 C-16.14699935913086,-5.922999858856201 16.14699935913086,-5.51200008392334 16.14699935913086,-5.51200008392334 C16.14699935913086,-5.51200008392334 16.14699935913086,5.922999858856201 16.14699935913086,5.922999858856201z"
        />
      </g>
    </g>
    <g
      transform="matrix(1,0,0,1,91.97599792480469,126.9530029296875)"
      opacity={1}
      style={{ display: "block" }}
    >
      <g
        opacity={1}
        transform="matrix(1,0,0,1,7.131999969482422,6.914000034332275)"
      >
        <path
          fill="rgb(215,222,232)"
          fillOpacity={1}
          d=" M6.881999969482422,0.08699999749660492 C6.881999969482422,3.739000082015991 3.813999891281128,6.664000034332275 0.019999999552965164,6.635000228881836 C-3.7839999198913574,6.60699987411499 -6.881999969482422,3.6040000915527344 -6.881999969482422,-0.057999998331069946 C-6.881999969482422,-3.7279999256134033 -3.7839999198913574,-6.663000106811523 0.019999999552965164,-6.605000019073486 C3.813999891281128,-6.557000160217285 6.881999969482422,-3.555000066757202 6.881999969482422,0.08699999749660492z"
        />
      </g>
    </g>
    <g
      transform="matrix(1,0,0,1,91.96900939941406,188.45401000976562)"
      opacity={1}
      style={{ display: "block" }}
    >
      <g
        opacity={1}
        transform="matrix(1,0,0,1,45.119998931884766,26.874000549316406)"
      >
        <path
          fill="rgb(211,168,253)"
          fillOpacity={1}
          d=" M44.869998931884766,20.658000946044922 C44.869998931884766,20.658000946044922 -44.869998931884766,26.624000549316406 -44.869998931884766,26.624000549316406 C-44.869998931884766,26.624000549316406 -44.869998931884766,-22.45599937438965 -44.869998931884766,-22.45599937438965 C-44.869998931884766,-22.45599937438965 44.869998931884766,-26.624000549316406 44.869998931884766,-26.624000549316406 C44.869998931884766,-26.624000549316406 44.869998931884766,20.658000946044922 44.869998931884766,20.658000946044922z"
        />
      </g>
    </g>
    <g
      transform="matrix(1,0,0,1,151.8040008544922,57.67950439453125)"
      opacity={1}
      style={{ display: "block" }}
    >
      <g
        opacity={1}
        transform="matrix(1,0,0,1,51.505001068115234,16.525999069213867)"
      >
        <path
          fill="rgb(48,24,68)"
          fillOpacity={1}
          d=" M-46.32400131225586,-16.2189998626709 C-46.32400131225586,-16.2189998626709 47.48899841308594,-14.277000427246094 47.48899841308594,-14.277000427246094 C49.571998596191406,-14.229000091552734 51.25600051879883,-12.260000228881836 51.25600051879883,-9.880000114440918 C51.25600051879883,-9.880000114440918 51.25600051879883,3.5230000019073486 51.25600051879883,3.5230000019073486 C51.25600051879883,5.9039998054504395 49.571998596191406,7.854000091552734 47.48899841308594,7.882999897003174 C47.48899841308594,7.882999897003174 3.697000026702881,8.390999794006348 3.697000026702881,8.390999794006348 C3.697000026702881,8.390999794006348 4.980000019073486,16.274999618530273 4.980000019073486,16.274999618530273 C4.980000019073486,16.274999618530273 3.5829999446868896,16.274999618530273 3.5829999446868896,16.274999618530273 C3.5829999446868896,16.274999618530273 -2.130000114440918,8.458000183105469 -2.130000114440918,8.458000183105469 C-2.130000114440918,8.458000183105469 -46.32400131225586,8.970999717712402 -46.32400131225586,8.970999717712402 C-49.03799819946289,9 -51.25600051879883,6.811999797821045 -51.25600051879883,4.067999839782715 C-51.25600051879883,4.067999839782715 -51.25600051879883,-11.36299991607666 -51.25600051879883,-11.36299991607666 C-51.25600051879883,-14.095999717712402 -49.03799819946289,-16.275999069213867 -46.32400131225586,-16.2189998626709z"
        />
      </g>
      <g
        opacity={1}
        transform="matrix(1,0,0,1,52.900001525878906,16.525999069213867)"
      >
        <path
          fill="rgb(237,163,200)"
          fillOpacity={1}
          d=" M-46.32400131225586,-16.2189998626709 C-46.32400131225586,-16.2189998626709 47.4900016784668,-14.277000427246094 47.4900016784668,-14.277000427246094 C49.573001861572266,-14.229000091552734 51.25600051879883,-12.260000228881836 51.25600051879883,-9.880000114440918 C51.25600051879883,-9.880000114440918 51.25600051879883,3.5230000019073486 51.25600051879883,3.5230000019073486 C51.25600051879883,5.9039998054504395 49.573001861572266,7.854000091552734 47.4900016784668,7.882999897003174 C47.4900016784668,7.882999897003174 9.215999603271484,8.32699966430664 9.215999603271484,8.32699966430664 C9.215999603271484,8.32699966430664 3.5850000381469727,16.274999618530273 3.5850000381469727,16.274999618530273 C3.5850000381469727,16.274999618530273 -2.13700008392334,8.458000183105469 -2.13700008392334,8.458000183105469 C-2.13700008392334,8.458000183105469 -46.32400131225586,8.970999717712402 -46.32400131225586,8.970999717712402 C-49.03799819946289,9 -51.25600051879883,6.811999797821045 -51.25600051879883,4.067999839782715 C-51.25600051879883,4.067999839782715 -51.25600051879883,-11.36299991607666 -51.25600051879883,-11.36299991607666 C-51.25600051879883,-14.095999717712402 -49.03799819946289,-16.275999069213867 -46.32400131225586,-16.2189998626709z"
        />
      </g>
      <g
        opacity={1}
        transform="matrix(1,0,0,1,53.88399887084961,12.916000366210938)"
      >
        <path
          fill="rgb(255,255,255)"
          fillOpacity={1}
          d=" M-36.51900100708008,0.23000000417232513 C-34.66400146484375,0.23999999463558197 -33.17399978637695,-1.2799999713897705 -33.17399978637695,-3.1630001068115234 C-33.17399978637695,-5.046999931335449 -34.66400146484375,-6.59499979019165 -36.51900100708008,-6.624000072479248 C-38.382999420166016,-6.6519999504089355 -39.893001556396484,-5.131999969482422 -39.893001556396484,-3.2300000190734863 C-39.893001556396484,-1.3279999494552612 -38.382999420166016,0.22100000083446503 -36.51900100708008,0.23000000417232513z M-40.88600158691406,1.5119999647140503 C-40.88600158691406,1.5119999647140503 -32.18000030517578,1.531000018119812 -32.18000030517578,1.531000018119812 C-30.726999282836914,1.531000018119812 -29.541000366210938,2.744999885559082 -29.541000366210938,4.236000061035156 C-29.541000366210938,4.236000061035156 -29.541000366210938,6.415999889373779 -29.541000366210938,6.415999889373779 C-29.541000366210938,6.415999889373779 -43.60100173950195,6.4730000495910645 -43.60100173950195,6.4730000495910645 C-43.60100173950195,6.4730000495910645 -43.60100173950195,4.264999866485596 -43.60100173950195,4.264999866485596 C-43.60100173950195,2.734999895095825 -42.387001037597656,1.5119999647140503 -40.88600158691406,1.5119999647140503z M-25.231000900268555,4.446000099182129 C-25.231000900268555,4.446000099182129 -25.21299934387207,4.447999954223633 -25.21299934387207,4.447999954223633 C-25.21299934387207,4.447999954223633 -25.21299934387207,6.625999927520752 -25.21299934387207,6.625999927520752 C-25.21299934387207,6.625999927520752 -25.14900016784668,6.627999782562256 -25.14900016784668,6.627999782562256 C-24.854000091552734,6.638000011444092 -24.427000045776367,6.6519999504089355 -23.999000549316406,6.616000175476074 C-22.229999542236328,6.53000020980835 -20.739999771118164,5.966000080108643 -19.65999984741211,4.942999839782715 C-18.427000045776367,3.757999897003174 -17.68199920654297,1.9700000286102295 -17.68199920654297,-0.47699999809265137 C-17.68199920654297,-3.2309999465942383 -19.04800033569336,-5.563000202178955 -21.961999893188477,-5.60099983215332 C-24.476999282836914,-5.630000114440918 -26.281999588012695,-3.688999891281128 -26.281999588012695,-1.3660000562667847 C-26.281999588012695,0.9470000267028809 -24.638999938964844,2.361999988555908 -22.70800018310547,2.361999988555908 C-21.677000045776367,2.361999988555908 -20.940000534057617,2.055999994277954 -20.433000564575195,1.5110000371932983 C-20.433000564575195,1.5110000371932983 -20.386999130249023,1.531000018119812 -20.386999130249023,1.531000018119812 C-20.59600067138672,2.4189999103546143 -21.08300018310547,3.184000015258789 -21.819000244140625,3.7100000381469727 C-22.43199920654297,4.150000095367432 -23.253000259399414,4.388999938964844 -24.065000534057617,4.446000099182129 C-24.590999603271484,4.484000205993652 -24.88599967956543,4.484000205993652 -25.21299934387207,4.447999954223633 C-25.21299934387207,4.447999954223633 -25.21299934387207,4.446000099182129 -25.21299934387207,4.446000099182129 C-25.21299934387207,4.446000099182129 -25.231000900268555,4.446000099182129 -25.231000900268555,4.446000099182129z M-23.60700035095215,-1.5099999904632568 C-23.60700035095215,-0.4869999885559082 -23.082000732421875,0.3930000066757202 -21.992000579833984,0.3930000066757202 C-21.27400016784668,0.3930000066757202 -20.768999099731445,0.029999999329447746 -20.518999099731445,-0.38100001215934753 C-20.433000564575195,-0.5440000295639038 -20.37700080871582,-0.7260000109672546 -20.37700080871582,-1.0700000524520874 C-20.37700080871582,-2.322000026702881 -20.826000213623047,-3.565000057220459 -22.038000106811523,-3.5739998817443848 C-22.957000732421875,-3.5840001106262207 -23.625999450683594,-2.753000020980835 -23.60700035095215,-1.5099999904632568z M-13.256999969482422,-3.0390000343322754 C-13.256999969482422,-3.0390000343322754 -8.96500015258789,-3.000999927520752 -8.96500015258789,-3.000999927520752 C-8.96500015258789,-3.000999927520752 -8.954999923706055,-3.000999927520752 -8.954999923706055,-3.000999927520752 C-8.954999923706055,-3.000999927520752 -8.954999923706055,-5.236999988555908 -8.954999923706055,-5.236999988555908 C-8.954999923706055,-5.236999988555908 -15.062999725341797,-5.314000129699707 -15.062999725341797,-5.314000129699707 C-15.062999725341797,-5.314000129699707 -15.79800033569336,0.8429999947547913 -15.79800033569336,0.8429999947547913 C-15.34000015258789,0.765999972820282 -14.90999984741211,0.7369999885559082 -14.288000106811523,0.7369999885559082 C-12.060999870300293,0.746999979019165 -11.163999557495117,1.4830000400543213 -11.163999557495117,2.687000036239624 C-11.163999557495117,3.9210000038146973 -12.300000190734863,4.466000080108643 -13.380000114440918,4.466000080108643 C-14.392999649047852,4.466000080108643 -15.406000137329102,4.140999794006348 -15.904000282287598,3.8919999599456787 C-15.904000282287598,3.8919999599456787 -16.371000289916992,5.956999778747559 -16.371000289916992,5.956999778747559 C-15.75100040435791,6.301000118255615 -14.623000144958496,6.625999927520752 -13.265999794006348,6.617000102996826 C-10.282999992370605,6.60699987411499 -8.524999618530273,4.684999942779541 -8.524999618530273,2.5160000324249268 C-8.524999618530273,1.1579999923706055 -9.032999992370605,0.18299999833106995 -9.86299991607666,-0.4099999964237213 C-10.645999908447266,-1.003000020980835 -11.718000411987305,-1.2610000371932983 -12.777000427246094,-1.2699999809265137 C-12.777000427246094,-1.2699999809265137 -12.852999687194824,-1.2710000276565552 -12.852999687194824,-1.2710000276565552 C-12.852999687194824,-1.2710000276565552 -12.911999702453613,-1.2710000276565552 -12.911999702453613,-1.2710000276565552 C-13.119000434875488,-1.2719999551773071 -13.29699993133545,-1.2740000486373901 -13.496000289916992,-1.2419999837875366 C-13.496000289916992,-1.2419999837875366 -13.256999969482422,-3.0390000343322754 -13.256999969482422,-3.0390000343322754z M16.160999298095703,-1.7100000381469727 C16.05699920654297,-3.9089999198913574 14.699999809265137,-5.715000152587891 13.017999649047852,-5.877999782562256 C11.680999755859375,-6.01200008392334 10.494999885559082,-5.123000144958496 9.86400032043457,-3.746000051498413 C9.232999801635742,-5.142000198364258 8.038999557495117,-6.059999942779541 6.682000160217285,-5.964000225067139 C4.960999965667725,-5.840000152587891 3.565999984741211,-4.043000221252441 3.4609999656677246,-1.805999994277954 C3.384999990463257,-0.3240000009536743 3.871000051498413,1.0149999856948853 4.65500020980835,1.8940000534057617 C4.65500020980835,1.8940000534057617 9.520000457763672,6.119999885559082 9.520000457763672,6.119999885559082 C9.730999946594238,6.301000118255615 10.005999565124512,6.301000118255615 10.217000007629395,6.119999885559082 C10.217000007629395,6.119999885559082 15.005999565124512,1.9129999876022339 15.005999565124512,1.9129999876022339 C15.770999908447266,1.062000036239624 16.229000091552734,-0.25699999928474426 16.160999298095703,-1.7100000381469727z M26.7810001373291,-3.183000087738037 C26.7810001373291,-3.183000087738037 26.7810001373291,-4.817999839782715 26.7810001373291,-4.817999839782715 C26.7810001373291,-4.817999839782715 19.68000030517578,-4.9029998779296875 19.68000030517578,-4.9029998779296875 C19.68000030517578,-4.9029998779296875 19.68000030517578,-2.753000020980835 19.68000030517578,-2.753000020980835 C19.68000030517578,-2.753000020980835 24.30500030517578,-2.7139999866485596 24.30500030517578,-2.7139999866485596 C24.30500030517578,-2.7139999866485596 24.30500030517578,-2.6760001182556152 24.30500030517578,-2.6760001182556152 C24.30500030517578,-2.6760001182556152 20.148000717163086,6.2820000648498535 20.148000717163086,6.2820000648498535 C20.148000717163086,6.2820000648498535 22.649999618530273,6.271999835968018 22.649999618530273,6.271999835968018 C22.649999618530273,6.271999835968018 26.7810001373291,-3.183000087738037 26.7810001373291,-3.183000087738037z M34.70199966430664,-2.618000030517578 C34.70199966430664,-2.618000030517578 30.909000396728516,-2.6470000743865967 30.909000396728516,-2.6470000743865967 C30.909000396728516,-2.6470000743865967 30.697999954223633,-0.9549999833106995 30.697999954223633,-0.9549999833106995 C30.909000396728516,-0.984000027179718 31.090999603271484,-0.984000027179718 31.33799934387207,-0.984000027179718 C32.275001525878906,-0.9739999771118164 33.222999572753906,-0.7350000143051147 33.91899871826172,-0.17100000381469727 C34.654998779296875,0.3930000066757202 35.10499954223633,1.3009999990463257 35.10499954223633,2.5820000171661377 C35.10499954223633,4.61899995803833 33.54800033569336,6.425000190734863 30.909000396728516,6.434999942779541 C29.71500015258789,6.443999767303467 28.709999084472656,6.138999938964844 28.15399932861328,5.813000202178955 C28.15399932861328,5.813000202178955 28.56599998474121,3.872999906539917 28.56599998474121,3.872999906539917 C29.006000518798828,4.111999988555908 29.905000686645508,4.418000221252441 30.80500030517578,4.418000221252441 C31.760000228881836,4.418000221252441 32.762001037597656,3.9110000133514404 32.762001037597656,2.744999885559082 C32.762001037597656,1.6169999837875366 31.959999084472656,0.9190000295639038 29.990999221801758,0.9100000262260437 C29.445999145507812,0.9100000262260437 29.06399917602539,0.9380000233650208 28.652000427246094,1.0049999952316284 C28.652000427246094,1.0049999952316284 29.31399917602539,-4.7789998054504395 29.31399917602539,-4.7789998054504395 C29.31399917602539,-4.7789998054504395 34.7130012512207,-4.711999893188477 34.7130012512207,-4.711999893188477 C34.7130012512207,-4.711999893188477 34.7130012512207,-2.618000030517578 34.7130012512207,-2.618000030517578 C34.7130012512207,-2.618000030517578 34.70199966430664,-2.618000030517578 34.70199966430664,-2.618000030517578z M38.08700180053711,0.6320000290870667 C37.03499984741211,1.1480000019073486 36.367000579833984,2.055999994277954 36.367000579833984,3.365999937057495 C36.367000579833984,4.8379998207092285 37.49300003051758,6.395999908447266 39.93000030517578,6.395999908447266 C42.14799880981445,6.38700008392334 43.60100173950195,5.066999912261963 43.60100173950195,3.1080000400543213 C43.60100173950195,1.7120000123977661 42.78799819946289,0.8040000200271606 41.861000061035156,0.4020000100135803 C41.861000061035156,0.4020000100135803 41.861000061035156,0.3540000021457672 41.861000061035156,0.3540000021457672 C42.79800033569336,-0.1720000058412552 43.236000061035156,-1.0800000429153442 43.236000061035156,-2.0169999599456787 C43.236000061035156,-3.3359999656677246 42.31999969482422,-4.808000087738037 40.08300018310547,-4.836999893188477 C38.16299819946289,-4.864999771118164 36.691001892089844,-3.6510000228881836 36.691001892089844,-1.805999994277954 C36.691001892089844,-0.8500000238418579 37.14899826049805,0.039000000804662704 38.08700180053711,0.5839999914169312 C38.08700180053711,0.5839999914169312 38.08700180053711,0.6320000290870667 38.08700180053711,0.6320000290870667z M39.834999084472656,1.4919999837875366 C40.7140007019043,1.7599999904632568 41.334999084472656,2.3239998817443848 41.334999084472656,3.2799999713897705 C41.334999084472656,4.044000148773193 40.83000183105469,4.627999782562256 40.027000427246094,4.63700008392334 C39.1870002746582,4.63700008392334 38.650001525878906,3.9010000228881836 38.66899871826172,3.117000102996826 C38.66899871826172,2.3239998817443848 39.0989990234375,1.722000002861023 39.834999084472656,1.4919999837875366z M40.16999816894531,-0.4009999930858612 C39.404998779296875,-0.6690000295639038 38.8120002746582,-1.1469999551773071 38.8120002746582,-1.8819999694824219 C38.8120002746582,-2.571000099182129 39.2140007019043,-3.134999990463257 39.979000091552734,-3.125999927520752 C40.810001373291016,-3.115999937057495 41.14500045776367,-2.447000026702881 41.14500045776367,-1.7769999504089355 C41.14500045776367,-1.0989999771118164 40.68600082397461,-0.5640000104904175 40.16999816894531,-0.4009999930858612z"
        />
      </g>
    </g>
    <g
      transform="matrix(1,0,0,1,56.710994720458984,3.2209701538085938)"
      opacity={1}
      style={{ display: "block" }}
    >
      <g
        opacity={1}
        transform="matrix(1,0,0,1,32.99800109863281,27.43000030517578)"
      >
        <path
          fill="rgb(48,24,68)"
          fillOpacity={1}
          d=" M25.73200035095215,-23.402999877929688 C25.73200035095215,-23.402999877929688 -25.150999069213867,-26.14699935913086 -25.150999069213867,-26.14699935913086 C-29.336000442504883,-26.365999221801758 -32.74700164794922,-23.277999877929688 -32.74700164794922,-19.243999481201172 C-32.74700164794922,-19.243999481201172 -32.74700164794922,8.642000198364258 -32.74700164794922,8.642000198364258 C-32.74700164794922,12.675999641418457 -29.336000442504883,16.031999588012695 -25.141000747680664,16.136999130249023 C-25.141000747680664,16.136999130249023 -8.501999855041504,16.54800033569336 -8.501999855041504,16.54800033569336 C-8.501999855041504,16.54800033569336 -0.7419999837875366,25.725000381469727 -0.7419999837875366,25.725000381469727 C-0.27300000190734863,26.280000686645508 0.5479999780654907,26.365999221801758 1.121999979019165,25.926000595092773 C1.121999979019165,25.926000595092773 8.586999893188477,16.9689998626709 8.586999893188477,16.9689998626709 C8.586999893188477,16.9689998626709 25.742000579833984,17.388999938964844 25.742000579833984,17.388999938964844 C29.621999740600586,17.485000610351562 32.74700164794922,14.4350004196167 32.74700164794922,10.581999778747559 C32.74700164794922,10.581999778747559 32.74700164794922,-16.051000595092773 32.74700164794922,-16.051000595092773 C32.74700164794922,-19.90399932861328 29.61199951171875,-23.19300079345703 25.73200035095215,-23.402999877929688z"
        />
      </g>
      <g
        opacity={1}
        transform="matrix(1,0,0,1,34.005001068115234,26.50200080871582)"
      >
        <path
          fill="rgb(237,163,200)"
          fillOpacity={1}
          d=" M25.738000869750977,-23.288000106811523 C25.738000869750977,-23.288000106811523 -25.145000457763672,-26.02199935913086 -25.145000457763672,-26.02199935913086 C-29.340999603271484,-26.25200080871582 -32.75299835205078,-23.163999557495117 -32.75299835205078,-19.1299991607666 C-32.75299835205078,-19.1299991607666 -32.75299835205078,8.756999969482422 -32.75299835205078,8.756999969482422 C-32.75299835205078,12.791999816894531 -29.340999603271484,16.14699935913086 -25.145000457763672,16.253000259399414 C-25.145000457763672,16.253000259399414 -8.505999565124512,16.663000106811523 -8.505999565124512,16.663000106811523 C-8.505999565124512,16.663000106811523 -0.9369999766349792,25.611000061035156 -0.9369999766349792,25.611000061035156 C-0.4020000100135803,26.25200080871582 0.5839999914169312,26.25200080871582 1.128999948501587,25.6299991607666 C1.128999948501587,25.6299991607666 8.583000183105469,17.08300018310547 8.583000183105469,17.08300018310547 C8.583000183105469,17.08300018310547 25.738000869750977,17.5049991607666 25.738000869750977,17.5049991607666 C29.618000030517578,17.600000381469727 32.742000579833984,14.550000190734863 32.742000579833984,10.696999549865723 C32.742000579833984,10.696999549865723 32.742000579833984,-15.935999870300293 32.742000579833984,-15.935999870300293 C32.75199890136719,-19.788999557495117 29.618000030517578,-23.077999114990234 25.738000869750977,-23.288000106811523z"
        />
      </g>
      <g
        opacity={1}
        transform="matrix(1,0,0,1,34.55400085449219,23.533000946044922)"
      >
        <path
          fill="rgb(255,255,255)"
          fillOpacity={1}
          d=" M16.93199920654297,-3.7330000400543213 C16.655000686645508,-9.010000228881836 13.060999870300293,-13.446000099182129 8.597999572753906,-14.010000228881836 C5.041999816894531,-14.458999633789062 1.8890000581741333,-12.451000213623047 0.20600000023841858,-9.201000213623047 C-1.475000023841858,-12.61400032043457 -4.668000221252441,-14.937000274658203 -8.289999961853027,-14.831999778747559 C-12.895999908447266,-14.708000183105469 -16.634000778198242,-10.529999732971191 -16.93000030517578,-5.1479997634887695 C-17.121999740600586,-1.590999960899353 -15.831000328063965,1.6779999732971191 -13.718999862670898,3.877000093460083 C-13.718999862670898,3.877000093460083 -0.7300000190734863,14.458999633789062 -0.7300000190734863,14.458999633789062 C-0.16699999570846558,14.918000221252441 0.5600000023841858,14.937000274658203 1.1239999532699585,14.517000198364258 C1.1239999532699585,14.517000198364258 13.854000091552734,4.861999988555908 13.854000091552734,4.861999988555908 C15.890000343322754,2.8440001010894775 17.121999740600586,-0.2529999911785126 16.93199920654297,-3.7330000400543213z"
        />
      </g>
    </g>
    <g
      transform="matrix(1,0,0,1,85.4780044555664,90.64599609375)"
      opacity={1}
      style={{ display: "block" }}
    >
      <g
        opacity={1}
        transform="matrix(1,0,0,1,50.215999603271484,113.22899627685547)"
      >
        <path
          fill="rgb(48,24,68)"
          fillOpacity={1}
          d=" M21.417999267578125,32.92399978637695 C17.499000549316406,33.909000396728516 13.093999862670898,32.63800048828125 10.331000328063965,29.386999130249023 C10.331000328063965,29.386999130249023 -28.604000091552734,-16.45400047302246 -28.604000091552734,-16.45400047302246 C-32.150001525878906,-20.631999969482422 -31.634000778198242,-26.79800033569336 -27.429000854492188,-30.277000427246094 C-23.19499969482422,-33.7760009765625 -14.89900016784668,-33.909000396728516 -11.286999702453613,-29.69300079345703 C-11.286999702453613,-29.69300079345703 28.40399932861328,16.538999557495117 28.40399932861328,16.538999557495117 C32.150001525878906,20.898000717163086 31.51099967956543,27.18000030517578 26.999000549316406,30.534000396728516 C25.881000518798828,31.357999801635742 22.70800018310547,32.599998474121094 21.417999267578125,32.92399978637695z"
        />
      </g>
      <g
        opacity={1}
        transform="matrix(1,0,0,1,15.937999725341797,92.73799896240234)"
      >
        <path
          fill="rgb(48,24,68)"
          fillOpacity={1}
          d=" M-9.77299976348877,-16.03700065612793 C-9.581999778747559,-16.0939998626709 -9.390000343322754,-16.141000747680664 -9.199999809265137,-16.18000030517578 C-9.199999809265137,-16.18000030517578 4.36299991607666,-20.683000564575195 4.36299991607666,-20.683000564575195 C4.36299991607666,-20.683000564575195 15.689000129699707,14.706999778747559 15.689000129699707,14.706999778747559 C15.689000129699707,14.706999778747559 2.490000009536743,18.732999801635742 2.490000009536743,18.732999801635742 C2.184000015258789,18.92300033569336 1.850000023841858,19.084999084472656 1.50600004196167,19.191999435424805 C-3.1579999923706055,20.683000564575195 -9.465999603271484,14.01099967956543 -12.572999954223633,4.2779998779296875 C-15.689000129699707,-5.445000171661377 -14.437000274658203,-14.545000076293945 -9.77299976348877,-16.03700065612793z"
        />
      </g>
      <g
        opacity={1}
        transform="matrix(1,0,0,1,81.08399963378906,57.757999420166016)"
      >
        <path
          fill="rgb(92,186,228)"
          fillOpacity={1}
          d=" M-60.784000396728516,14.29699993133545 C-62.16999816894531,27.729000091552734 -58.41400146484375,39.46699905395508 -49.45899963378906,49.68899917602539 C-49.45899963378906,49.68899917602539 62.16899871826172,49.83100128173828 62.16899871826172,49.83100128173828 C62.16899871826172,49.83100128173828 31.43400001525879,-49.83100128173828 31.43400001525879,-49.83100128173828 C31.43400001525879,-49.83100128173828 -60.784000396728516,14.29699993133545 -60.784000396728516,14.29699993133545z"
        />
      </g>
      <g
        opacity="0.2"
        transform="matrix(1,0,0,1,82.18900299072266,91.68599700927734)"
      >
        <path
          fill="rgb(170,128,248)"
          fillOpacity={1}
          d=" M24.405000686645508,-4.546000003814697 C13.614999771118164,-5.109000205993652 6.14900016784668,-18.1200008392334 -5.165999889373779,-15.013999938964844 C-14.053999900817871,-12.576000213623047 -13.968000411987305,-3.2179999351501465 -22.847000122070312,-1.3819999694824219 C-31.93600082397461,0.492000013589859 -36.45600128173828,-8.512999534606934 -47.369998931884766,-8.70300006866455 C-52.33000183105469,-8.789999961853027 -56.928001403808594,-7.01200008392334 -61.066001892089844,-4.269000053405762 C-59.422000885009766,2.9690001010894775 -55.93299865722656,9.633000373840332 -50.5620002746582,15.758999824523926 C-50.5620002746582,15.758999824523926 61.066001892089844,15.902999877929688 61.066001892089844,15.902999877929688 C61.066001892089844,15.902999877929688 44.28300094604492,-15.902999877929688 44.28300094604492,-15.902999877929688 C36.16999816894531,-6.888000011444092 29.632999420166016,-4.269000053405762 24.405000686645508,-4.546000003814697z"
        />
      </g>
      <g
        opacity={1}
        transform="matrix(1,0,0,1,132.1479949951172,55.959999084472656)"
      >
        <path
          fill="rgb(226,141,221)"
          fillOpacity={1}
          d=" M-24.6200008392334,7.882999897003174 C-15.539999961853027,36.24599838256836 2.8380000591278076,55.709999084472656 16.43899917602539,51.36199951171875 C30.038000106811523,47.012001037597656 33.698001861572266,20.482999801635742 24.618000030517578,-7.881999969482422 C15.539999961853027,-36.24599838256836 -2.8389999866485596,-55.709999084472656 -16.437999725341797,-51.36000061035156 C-30.038000106811523,-47.01100158691406 -33.698001861572266,-20.481000900268555 -24.6200008392334,7.882999897003174z"
        />
      </g>
      <g
        opacity={1}
        transform="matrix(1,0,0,1,132.5399932861328,55.96099853515625)"
      >
        <path
          fill="rgb(48,24,68)"
          fillOpacity={1}
          d=" M15.482999801635742,49.61899948120117 C18.368999481201172,48.69200134277344 20.815000534057617,46.57899856567383 22.764999389648438,43.31800079345703 C24.743999481201172,40.00199890136719 26.110000610351562,35.691001892089844 26.82699966430664,30.489999771118164 C28.336999893188477,19.562999725341797 26.79800033569336,6.131999969482422 22.488000869750977,-7.328999996185303 C18.17799949645996,-20.788999557495117 11.640000343322754,-32.62300109863281 4.071000099182129,-40.6349983215332 C0.4690000116825104,-44.44900131225586 -3.1449999809265137,-47.165000915527344 -6.681000232696533,-48.7140007019043 C-10.149999618530273,-50.23400115966797 -13.378999710083008,-50.53799819946289 -16.267000198364258,-49.611000061035156 C-19.152999877929688,-48.683998107910156 -21.597999572753906,-46.57099914550781 -23.548999786376953,-43.3120002746582 C-25.527999877929688,-39.99399948120117 -26.893999099731445,-35.68299865722656 -27.611000061035156,-30.482999801635742 C-28.240999221801758,-25.91200065612793 -28.336999893188477,-20.91200065612793 -27.924999237060547,-15.645000457763672 C-27.351999282836914,-8.321999549865723 -20.44300079345703,-2.691999912261963 -17.937999725341797,5.138999938964844 C-15.272000312805176,13.46500015258789 -17.086999893188477,23.368000030517578 -12.996999740600586,29.92799949645996 C-10.475000381469727,33.97100067138672 -7.741000175476074,37.584999084472656 -4.855000019073486,40.6349983215332 C-1.2519999742507935,44.44900131225586 2.3610000610351562,47.16299819946289 5.896999835968018,48.71200180053711 C9.376999855041504,50.24100112915039 12.597000122070312,50.53799819946289 15.482999801635742,49.61899948120117z"
        />
      </g>
    </g>
    <g
      transform="matrix(1,0,0,1,189.38949584960938,100.60550689697266)"
      opacity={1}
      style={{ display: "block" }}
    >
      <g
        opacity={1}
        transform="matrix(1,0,0,1,20.031999588012695,17.238000869750977)"
      >
        <path
          fill="rgb(255,196,68)"
          fillOpacity={1}
          d=" M17.08799934387207,-6.129000186920166 C19.783000946044922,1.3860000371932983 14.317000389099121,10.220000267028809 4.874000072479248,13.604000091552734 C-4.558000087738037,16.988000869750977 -14.392999649047852,13.642999649047852 -17.089000701904297,6.127999782562256 C-19.783000946044922,-1.3860000371932983 -14.317000389099121,-10.220000267028809 -4.874000072479248,-13.604999542236328 C4.566999912261963,-16.988000869750977 14.394000053405762,-13.633000373840332 17.08799934387207,-6.129000186920166z"
        />
      </g>
      <g
        opacity={1}
        transform="matrix(1,0,0,1,19.94099998474121,18.900999069213867)"
      >
        <path
          fill="rgb(255,255,255)"
          fillOpacity={1}
          d=" M-2.928999900817871,6.7210001945495605 C-2.928999900817871,6.7210001945495605 -7.563000202178955,-6.223999977111816 -7.563000202178955,-6.223999977111816 C-7.860000133514404,-7.056000232696533 -7.36299991607666,-7.848999977111816 -6.627999782562256,-7.705999851226807 C-6.627999782562256,-7.705999851226807 6.590000152587891,-5.144000053405762 6.590000152587891,-5.144000053405762 C7.421000003814697,-4.980999946594238 7.860000133514404,-3.756999969482422 7.315999984741211,-3.1070001125335693 C7.315999984741211,-3.1070001125335693 -1.2660000324249268,7.276000022888184 -1.2660000324249268,7.276000022888184 C-1.7339999675750732,7.848999977111816 -2.631999969482422,7.552000045776367 -2.928999900817871,6.7210001945495605z"
        />
      </g>
    </g>
    <g
      transform="matrix(1,0,0,1,210.47499084472656,121.7449951171875)"
      opacity={1}
      style={{ display: "block" }}
    >
      <g
        opacity={1}
        transform="matrix(1,0,0,1,24.094999313354492,20.10099983215332)"
      >
        <path
          fill="rgb(92,186,228)"
          fillOpacity={1}
          d=" M21.952999114990234,-4.296999931335449 C23.84600067138672,5.357999801635742 15.550000190734863,15.109000205993652 3.421999931335449,17.479999542236328 C-8.706000328063965,19.85099983215332 -20.06100082397461,13.95300006866455 -21.95199966430664,4.296999931335449 C-23.844999313354492,-5.359000205993652 -15.548999786376953,-15.109999656677246 -3.4210000038146973,-17.481000900268555 C8.706999778747559,-19.85099983215332 20.069000244140625,-13.95199966430664 21.952999114990234,-4.296999931335449z"
        />
      </g>
      <g
        opacity={1}
        transform="matrix(1,0,0,1,23.2450008392334,19.972999572753906)"
      >
        <path
          fill="rgb(255,255,255)"
          fillOpacity={1}
          d=" M-1.3860000371932983,-11.309000015258789 C-5.724999904632568,-10.458999633789062 -8.553999900817871,-6.252999782562256 -7.703999996185303,-1.9220000505447388 C-7.150000095367432,0.8889999985694885 -2.571000099182129,6.7870001792907715 0.5809999704360962,10.581999778747559 C1.8919999599456787,12.15999984741211 4.434000015258789,11.661999702453613 5.046000003814697,9.70300006866455 C6.5370001792907715,4.991000175476074 8.553999900817871,-2.188999891281128 7.998000144958496,-5 C7.1579999923706055,-9.331000328063965 2.9539999961853027,-12.15999984741211 -1.3860000371932983,-11.309000015258789z M0.9750000238418579,0.7649999856948853 C-1.3569999933242798,1.2239999771118164 -3.611999988555908,-0.296999990940094 -4.061999797821045,-2.628999948501587 C-4.520999908447266,-4.961999893188477 -3.003000020980835,-7.2170000076293945 -0.6690000295639038,-7.676000118255615 C1.6629999876022339,-8.135000228881836 3.9179999828338623,-6.616000175476074 4.375999927520752,-4.2829999923706055 C4.826000213623047,-1.9509999752044678 3.306999921798706,0.3059999942779541 0.9750000238418579,0.7649999856948853z"
        />
      </g>
    </g>
    <g
      transform="matrix(1,0,0,1,201.28900146484375,155.677001953125)"
      opacity={1}
      style={{ display: "block" }}
    >
      <g
        opacity={1}
        transform="matrix(1,0,0,1,19.0049991607666,16.621999740600586)"
      >
        <path
          fill="rgb(237,163,200)"
          fillOpacity={1}
          d=" M16.825000762939453,4.5269999504089355 C14.894000053405762,12.097999572753906 5.9679999351501465,16.371000289916992 -3.265000104904175,14.038000106811523 C-12.649999618530273,11.675000190734863 -18.756000518798828,3.4070000648498535 -16.770000457763672,-4.394999980926514 C-14.781000137329102,-12.194999694824219 -5.5,-16.371000289916992 3.816999912261963,-13.770999908447266 C12.991000175476074,-11.218999862670898 18.756000518798828,-3.0450000762939453 16.825000762939453,4.5269999504089355z"
        />
      </g>
      <g
        opacity={1}
        transform="matrix(1,0,0,1,18.332000732421875,17.145999908447266)"
      >
        <path
          fill="rgb(255,255,255)"
          fillOpacity={1}
          d=" M11.277999877929688,-1.6200000047683716 C11.067000389099121,-3.753000020980835 9.67300033569336,-5.5970001220703125 7.627999782562256,-6.151000022888184 C4.940999984741211,-6.876999855041504 2.1600000858306885,-5.11899995803833 1.4240000247955322,-2.2119998931884766 C2.1600000858306885,-5.11899995803833 0.5730000138282776,-8.072999954223633 -2.1419999599456787,-8.809000015258789 C-4.235000133514404,-9.383999824523926 -6.383999824523926,-8.473999977111816 -7.607999801635742,-6.696000099182129 C-12.166999816894531,-0.36800000071525574 -1.5299999713897705,9.383999824523926 -1.5299999713897705,9.383999824523926 C-1.5299999713897705,9.383999824523926 12.166999816894531,6.019000053405762 11.277999877929688,-1.6200000047683716z"
        />
      </g>
    </g>
    <g
      transform="matrix(1,0,0,1,177.81900024414062,125.66400146484375)"
      opacity={1}
      style={{ display: "block" }}
    >
      <g
        opacity={1}
        transform="matrix(1,0,0,1,23.229999542236328,26.72599983215332)"
      >
        <path
          fill="rgb(255,196,68)"
          fillOpacity={1}
          d=" M18.812000274658203,-5.760000228881836 C22.979999542236328,7.251999855041504 17.666000366210938,20.34000015258789 7.105000019073486,23.43600082397461 C-3.2929999828338623,26.47599983215332 -14.885000228881836,18.6560001373291 -18.926000595092773,6.008999824523926 C-22.979999542236328,-6.638999938964844 -18.038999557495117,-19.61199951171875 -7.75600004196167,-23.014999389648438 C2.690999984741211,-26.47599983215332 14.645999908447266,-18.770999908447266 18.812000274658203,-5.760000228881836z"
        />
      </g>
    </g>
    <g
      transform="matrix(0.9980342984199524,0.004267486743628979,-0.0003414156672079116,0.9980342984199524,33.881500244140625,65.11376953125)"
      opacity={1}
      style={{ display: "block" }}
    >
      <g
        opacity={1}
        transform="matrix(1,0,0,1,56.04800033569336,42.80699920654297)"
      >
        <path
          fill="rgb(68,74,139)"
          fillOpacity={1}
          d=" M52.71200180053711,-12.022000312805176 C51.994998931884766,-12.022000312805176 51.316001892089844,-11.640000343322754 50.77199935913086,-11 C50.77199935913086,-11 50.76300048828125,-11 50.76300048828125,-11 C44.72200012207031,-27.98699951171875 24.815000534057617,-40.625999450683594 0.921999990940094,-40.845001220703125 C-3.941999912261963,-40.893001556396484 -8.654000282287598,-40.42499923706055 -13.145999908447266,-39.49700164794922 C-13.145999908447266,-39.49700164794922 -13.156000137329102,-39.49700164794922 -13.156000137329102,-39.49700164794922 C-31.009000778198242,-35.83599853515625 -45.220001220703125,-25.02400016784668 -50.29499816894531,-11.152999877929688 C-50.86899948120117,-11.821999549865723 -51.652000427246094,-12.213000297546387 -52.41600036621094,-12.213000297546387 C-54.356998443603516,-12.213000297546387 -56.04800033569336,-9.680000305175781 -56.04800033569336,-6.553999900817871 C-56.04800033569336,-6.553999900817871 -56.04800033569336,9.907999992370605 -56.04800033569336,9.907999992370605 C-56.04800033569336,13.043000221252441 -54.44300079345703,15.567000389099121 -52.49300003051758,15.557999610900879 C-52.49300003051758,15.557999610900879 -52.43600082397461,15.557999610900879 -52.43600082397461,15.557999610900879 C-52.43600082397461,15.557999610900879 -52.37799835205078,15.557999610900879 -52.37799835205078,15.557999610900879 C-51.22200012207031,15.54800033569336 -50.12300109863281,14.640000343322754 -49.492000579833984,13.244999885559082 C-42.34299850463867,29.572999954223633 -22.358999252319336,41.12099838256836 0.9120000004768372,40.84299850463867 C7.431000232696533,40.766998291015625 13.652000427246094,39.76300048828125 19.367000579833984,38.00400161743164 C33.82699966430664,33.569000244140625 45.124000549316406,24.277000427246094 50.00699996948242,12.765999794006348 C50.60900115966797,14.12399959564209 51.604000091552734,15.003000259399414 52.70199966430664,14.994000434875488 C54.5369987487793,14.984000205993652 56.04800033569336,12.508000373840332 56.04800033569336,9.477999687194824 C56.04800033569336,9.477999687194824 56.04800033569336,-6.50600004196167 56.04800033569336,-6.50600004196167 C56.05699920654297,-9.555999755859375 54.547000885009766,-12.022000312805176 52.71200180053711,-12.022000312805176z"
        />
      </g>
      <g
        opacity={1}
        transform="matrix(1,0,0,1,58.33700180053711,40.33399963378906)"
      >
        <path
          fill="rgb(237,163,200)"
          fillOpacity={1}
          d=" M51.284000396728516,-0.19099999964237213 C51.284000396728516,4.197000026702881 50.375999450683594,8.413999557495117 48.70399856567383,12.362000465393066 C43.92499923706055,23.604000091552734 32.88600158691406,32.685001373291016 18.750999450683594,37.025001525878906 C13.159000396728516,38.74599838256836 7.081999778747559,39.73099899291992 0.7170000076293945,39.80699920654297 C-22.038999557495117,40.08399963378906 -41.564998626708984,28.795000076293945 -48.56100082397461,12.831000328063965 C-50.32899856567383,8.786999702453613 -51.284000396728516,4.454999923706055 -51.284000396728516,-0.04800000041723251 C-51.284000396728516,-3.8529999256134033 -50.59600067138672,-7.5229997634887695 -49.32500076293945,-11.01200008392334 C-44.3650016784668,-24.56800079345703 -30.48699951171875,-35.141998291015625 -13.03600025177002,-38.71699905395508 C-8.64900016784668,-39.625999450683594 -4.0320000648498535,-40.08399963378906 0.7170000076293945,-40.0359992980957 C24.075000762939453,-39.816001892089844 43.53300094604492,-27.464000701904297 49.43899917602539,-10.859000205993652 C50.643001556396484,-7.465000152587891 51.284000396728516,-3.8910000324249268 51.284000396728516,-0.19099999964237213z"
        />
      </g>
      <g
        opacity={1}
        transform="matrix(1,0,0,1,59.43199920654297,44.40700149536133)"
      >
        <path
          fill="rgb(255,255,255)"
          fillOpacity={1}
          d=" M23.3439998626709,17.18000030517578 C23.3439998626709,17.18000030517578 -22.780000686645508,17.514999389648438 -22.780000686645508,17.514999389648438 C-32.22200012207031,17.58099937438965 -39.915000915527344,9.895999908447266 -39.915000915527344,0.33500000834465027 C-39.915000915527344,0.33500000834465027 -39.915000915527344,-9.770000457763672 -39.915000915527344,-9.770000457763672 C-39.915000915527344,-14.081999778747559 -36.4370002746582,-17.58099937438965 -32.15599822998047,-17.570999145507812 C-32.15599822998047,-17.570999145507812 32.45100021362305,-17.426000595092773 32.45100021362305,-17.426000595092773 C36.58000183105469,-17.41699981689453 39.915000915527344,-13.986000061035156 39.915000915527344,-9.760000228881836 C39.915000915527344,-9.760000228881836 39.915000915527344,0.125 39.915000915527344,0.125 C39.915000915527344,9.484999656677246 32.50899887084961,17.11400032043457 23.3439998626709,17.18000030517578z"
        />
      </g>
      <g
        opacity={1}
        transform="matrix(1,0,0,1,58.933998107910156,52.7168083190918)"
      >
        <path
          fill="rgb(255,255,255)"
          fillOpacity={1}
          d=" M3.388000011444092,16.586000442504883 C3.388000011444092,16.586000442504883 -3.187000036239624,16.652000427246094 -3.187000036239624,16.652000427246094 C-12.305000305175781,16.73900032043457 -19.72100067138672,9.302000045776367 -19.72100067138672,0.03799999877810478 C-19.72100067138672,-9.22599983215332 -12.305000305175781,-16.73900032043457 -3.187000036239624,-16.73900032043457 C-3.187000036239624,-16.73900032043457 3.388000011444092,-16.73900032043457 3.388000011444092,-16.73900032043457 C12.428999900817871,-16.73900032043457 19.72100067138672,-9.321000099182129 19.72100067138672,-0.15299999713897705 C19.72100067138672,8.994999885559082 12.428999900817871,16.5 3.388000011444092,16.586000442504883z"
        />
      </g>
      <g
        opacity={1}
        transform="matrix(1,0,0,1,59.2400016784668,41.81700134277344)"
      >
        <path
          fill="rgb(68,74,139)"
          fillOpacity={1}
          d=" M24.767000198364258,11.98799991607666 C24.767000198364258,11.98799991607666 -24.365999221801758,12.237000465393066 -24.365999221801758,12.237000465393066 C-31.084999084472656,12.274999618530273 -36.55099868774414,6.796999931335449 -36.55099868774414,0.008999999612569809 C-36.55099868774414,0.008999999612569809 -36.55099868774414,-4.473999977111816 -36.55099868774414,-4.473999977111816 C-36.55099868774414,-8.78499984741211 -33.08300018310547,-12.274999618530273 -28.801000595092773,-12.274999618530273 C-28.801000595092773,-12.274999618530273 29.06800079345703,-12.189000129699707 29.06800079345703,-12.189000129699707 C33.20600128173828,-12.178999900817871 36.55099868774414,-8.746999740600586 36.55099868774414,-4.521999835968018 C36.55099868774414,-4.521999835968018 36.55099868774414,-0.12399999797344208 36.55099868774414,-0.12399999797344208 C36.55099868774414,6.5289998054504395 31.28499984741211,11.949999809265137 24.767000198364258,11.98799991607666z"
        />
      </g>
      <g
        opacity={1}
        transform="matrix(1,0,0,1,43.86800003051758,39.6609992980957)"
      >
        <path
          fill="rgb(215,222,232)"
          fillOpacity={1}
          d=" M5.486000061035156,3.5320000648498535 C5.953999996185303,2.8540000915527344 6.250999927520752,2.0889999866485596 6.250999927520752,1.2660000324249268 C6.250999927520752,-1.4010000228881836 3.4590001106262207,-3.561000108718872 0.008999999612569809,-3.561000108718872 C-3.4509999752044678,-3.561000108718872 -6.250999927520752,-1.3910000324249268 -6.250999927520752,1.2860000133514404 C-6.250999927520752,2.1080000400543213 -5.953999996185303,2.882999897003174 -5.486000061035156,3.561000108718872 C-5.486000061035156,3.561000108718872 5.486000061035156,3.5320000648498535 5.486000061035156,3.5320000648498535z"
        />
      </g>
      <g
        opacity={1}
        transform="matrix(1,0,0,1,75.08999633789062,39.61399841308594)"
      >
        <path
          fill="rgb(215,222,232)"
          fillOpacity={1}
          d=" M5.400000095367432,3.503000020980835 C5.859000205993652,2.8239998817443848 6.145999908447266,2.069000005722046 6.145999908447266,1.2569999694824219 C6.145999908447266,-1.3919999599456787 3.4030001163482666,-3.5320000648498535 0.009999999776482582,-3.5320000648498535 C-3.3919999599456787,-3.5320000648498535 -6.145999908447266,-1.3819999694824219 -6.145999908447266,1.2760000228881836 C-6.145999908447266,2.0980000495910645 -5.859000205993652,2.8540000915527344 -5.390999794006348,3.5320000648498535 C-5.390999794006348,3.5320000648498535 5.400000095367432,3.503000020980835 5.400000095367432,3.503000020980835z"
        />
      </g>
      <g
        opacity={1}
        transform="matrix(1,0,0,1,6.857999801635742,41.85900115966797)"
      >
        <path
          fill="rgb(68,74,139)"
          fillOpacity={1}
          d=" M3.2249999046325684,-8.045000076293945 C3.2249999046325684,-8.045000076293945 3.2249999046325684,8.015999794006348 3.2249999046325684,8.015999794006348 C3.2249999046325684,9.23900032043457 3.1489999294281006,10.378000259399414 2.7290000915527344,11.305000305175781 C2.1080000400543213,12.67199993133545 1.2269999980926514,13.5600004196167 0.09000000357627869,13.569999694824219 C-1.812000036239624,13.579000473022461 -3.2249999046325684,11.11299991607666 -3.2249999046325684,8.043999671936035 C-3.2249999046325684,8.043999671936035 -3.2249999046325684,-8.045000076293945 -3.2249999046325684,-8.045000076293945 C-3.2249999046325684,-11.104999542236328 -1.715999960899353,-13.579000473022461 0.1860000044107437,-13.579000473022461 C0.9309999942779541,-13.579000473022461 1.6009999513626099,-13.197999954223633 2.1649999618530273,-12.54800033569336 C2.318000078201294,-12.37600040435791 2.2790000438690186,-12.173999786376953 2.4130001068115234,-11.954000473022461 C3.0339999198913574,-10.949999809265137 3.2249999046325684,-9.574999809265137 3.2249999046325684,-8.045000076293945z"
        />
      </g>
      <g
        opacity={1}
        transform="matrix(1,0,0,1,109.65399932861328,41.678001403808594)"
      >
        <path
          fill="rgb(68,74,139)"
          fillOpacity={1}
          d=" M0.004999999888241291,13.196999549865723 C-1.7920000553131104,13.206999778747559 -3.253999948501587,10.79800033569336 -3.253999948501587,7.824999809265137 C-3.253999948501587,7.824999809265137 -3.253999948501587,-7.823999881744385 -3.253999948501587,-7.823999881744385 C-3.253999948501587,-10.79800033569336 -1.7920000553131104,-13.206999778747559 0.004999999888241291,-13.206999778747559 C1.8020000457763672,-13.206999778747559 3.253999948501587,-10.788000106811523 3.253999948501587,-7.823999881744385 C3.253999948501587,-7.823999881744385 3.253999948501587,7.796999931335449 3.253999948501587,7.796999931335449 C3.253999948501587,10.769000053405762 1.8020000457763672,13.187999725341797 0.004999999888241291,13.196999549865723z"
        />
      </g>
      <g
        opacity="0.15"
        transform="matrix(1,0,0,1,40.35499954223633,40.887001037597656)"
      >
        <path
          fill="rgb(215,222,232)"
          fillOpacity={1}
          d=" M22.358999252319336,29.264999389648438 C26.8799991607666,32.20899963378906 31.781999588012695,34.61899948120117 36.722999572753906,36.483001708984375 C31.131999969482422,38.202999114990234 25.054000854492188,39.1879997253418 18.68899917602539,39.26499938964844 C-4.066999912261963,39.54100036621094 -23.591999053955078,28.250999450683594 -30.58799934387207,12.28600025177002 C-31.208999633789062,13.654000282287598 -32.183998107910156,14.541999816894531 -33.31100082397461,14.552000045776367 C-35.2140007019043,14.562000274658203 -36.7239990234375,12.095000267028809 -36.7239990234375,9.027000427246094 C-36.7239990234375,9.027000427246094 -36.7239990234375,-7.061999797821045 -36.7239990234375,-7.061999797821045 C-36.7239990234375,-10.121999740600586 -35.2140007019043,-12.597000122070312 -33.31100082397461,-12.597000122070312 C-32.566001892089844,-12.597000122070312 -31.89699935913086,-12.21500015258789 -31.33300018310547,-11.5649995803833 C-26.37299919128418,-25.121000289916992 -12.505999565124512,-35.694000244140625 4.945000171661377,-39.27000045776367 C6.598999977111816,-33.38100051879883 6.541999816894531,-26.04800033569336 3.5220000743865967,-16.947999954223633 C3.187000036239624,-15.95300006866455 2.9010000228881836,-14.968000411987305 2.6419999599456787,-13.994000434875488 C2.4030001163482666,-13.093999862670898 2.203000068664551,-12.196000099182129 2.0399999618530273,-11.307000160217285 C1.6009999513626099,-8.96399974822998 1.38100004196167,-6.690000057220459 1.38100004196167,-4.491000175476074 C1.38100004196167,-2.130000114440918 1.6009999513626099,0.13600000739097595 2.049999952316284,2.3259999752044678 C2.0789999961853027,2.4590001106262207 2.1070001125335693,2.5929999351501465 2.135999917984009,2.7269999980926514 C2.928999900817871,6.446000099182129 4.343999862670898,9.906999588012695 6.236000061035156,13.119000434875488 C7.888999938964844,15.918999671936035 9.906000137329102,18.530000686645508 12.1899995803833,20.929000854492188 C15.180999755859375,24.05500030517578 18.631000518798828,26.836000442504883 22.358999252319336,29.264999389648438z"
        />
      </g>
    </g>
  </g>
</svg>
